<svg width="27" height="24" viewBox="0 0 27 24" fill="none" xmlns="http://www.w3.org/2000/svg">
<path d="M1.99994 20.3573C1.99994 20.3573 6.99994 19.3787 7.99994 16.4429C7.99994 16.4429 -5.69798e-05 13.5072 1.99994 2.74275C1.99994 2.74275 5.99994 7.63568 11.9999 8.61426V6.65744C12.0001 5.53324 12.3957 4.44336 13.1203 3.57103C13.845 2.69869 14.8544 2.09711 15.979 1.86741C17.1036 1.63771 18.2747 1.79391 19.2954 2.30974C20.3161 2.82557 21.1242 3.66958 21.5839 4.69987L25.9999 4.69992L21.9999 8.61426C21.9999 15.4644 16.9999 22.3145 7.99994 22.3145C3.99994 22.3145 1.99994 20.3573 1.99994 20.3573Z" stroke="white" stroke-width="2" stroke-linecap="round" stroke-linejoin="round"/>
</svg>
